<svg width="28" height="28" viewBox="0 0 28 28" fill="none" xmlns="http://www.w3.org/2000/svg">
<g id="DAY">
<rect width="28" height="28" fill="none"/>
<rect id="Rectangle 34628002" x="4.25" y="4.25" width="19.5" height="19.5" rx="9.75" stroke="#767676" stroke-width="1.5"/>
<path id="D" d="M14.2335 9.10095C14.9148 9.10095 15.5168 9.23162 16.0395 9.49295C16.5622 9.74495 16.9962 10.0996 17.3415 10.557C17.6962 11.005 17.9622 11.5276 18.1395 12.125C18.3168 12.713 18.4055 13.3383 18.4055 14.001C18.4055 14.9063 18.2468 15.7323 17.9295 16.479C17.6122 17.2163 17.1455 17.8043 16.5295 18.243C15.9135 18.6816 15.1482 18.901 14.2335 18.901H10.8175C10.6215 18.901 10.4535 18.8356 10.3135 18.705C10.1735 18.565 10.1035 18.3923 10.1035 18.187V9.81495C10.1035 9.60962 10.1735 9.44162 10.3135 9.31095C10.4535 9.17095 10.6215 9.10095 10.8175 9.10095H14.2335ZM14.0935 17.557C14.7562 17.557 15.2928 17.3936 15.7035 17.067C16.1142 16.7403 16.4128 16.311 16.5995 15.779C16.7955 15.2376 16.8935 14.645 16.8935 14.001C16.8935 13.525 16.8375 13.077 16.7255 12.657C16.6228 12.2276 16.4548 11.8496 16.2215 11.523C15.9975 11.187 15.7082 10.9256 15.3535 10.739C15.0082 10.543 14.5882 10.445 14.0935 10.445H11.4475L11.5735 10.319V17.697L11.4895 17.557H14.0935Z" fill="#767676"/>
</g>
</svg>
