<svg width="28" height="28" viewBox="0 0 28 28" fill="none" xmlns="http://www.w3.org/2000/svg">
<g id="DAY">
<rect width="28" height="28" fill="none"/>
<rect id="Rectangle 34628002" x="3.5" y="3.5" width="21" height="21" rx="10.5" fill="#5DAED6"/>
<path id="D" d="M14.2335 9.10107C14.9148 9.10107 15.5168 9.23174 16.0395 9.49307C16.5622 9.74507 16.9962 10.0997 17.3415 10.5571C17.6962 11.0051 17.9622 11.5277 18.1395 12.1251C18.3168 12.7131 18.4055 13.3384 18.4055 14.0011C18.4055 14.9064 18.2468 15.7324 17.9295 16.4791C17.6122 17.2164 17.1455 17.8044 16.5295 18.2431C15.9135 18.6817 15.1482 18.9011 14.2335 18.9011H10.8175C10.6215 18.9011 10.4535 18.8357 10.3135 18.7051C10.1735 18.5651 10.1035 18.3924 10.1035 18.1871V9.81507C10.1035 9.60974 10.1735 9.44174 10.3135 9.31107C10.4535 9.17107 10.6215 9.10107 10.8175 9.10107H14.2335ZM14.0935 17.5571C14.7562 17.5571 15.2928 17.3937 15.7035 17.0671C16.1142 16.7404 16.4128 16.3111 16.5995 15.7791C16.7955 15.2377 16.8935 14.6451 16.8935 14.0011C16.8935 13.5251 16.8375 13.0771 16.7255 12.6571C16.6228 12.2277 16.4548 11.8497 16.2215 11.5231C15.9975 11.1871 15.7082 10.9257 15.3535 10.7391C15.0082 10.5431 14.5882 10.4451 14.0935 10.4451H11.4475L11.5735 10.3191V17.6971L11.4895 17.5571H14.0935Z" fill="white"/>
</g>
</svg>
