<svg width="24" height="24" viewBox="0 0 24 24" fill="none" xmlns="http://www.w3.org/2000/svg">
<g id="Frame 2085666761">
<rect id="Rectangle 34628011" x="2" y="2" width="20" height="20" fill="#5DAED6"/>
<path id="Vector" d="M11.505 11.372C13.6768 11.372 15.5455 9.80757 15.5455 7.30477C15.5455 4.83201 13.6667 3 11.505 3C9.34343 3 7.46463 4.87208 7.46463 7.32481C7.46463 9.80757 9.34343 11.372 11.505 11.372ZM5.16161 21H17.8485C19.4343 21 20 20.5495 20 19.6685C20 17.0856 16.7374 12.9666 11.505 12.9666C6.26263 12.9666 3 17.0856 3 19.6685C3 20.5495 3.56562 21 5.16161 21Z" fill="white"/>
<circle id="Ellipse 5396" cx="17.5" cy="17.5" r="4" fill="white" stroke="#5DAED6"/>
<rect id="Rectangle 34628012" x="15.75" y="17" width="3.5" height="1" rx="0.5" fill="#5DAED6"/>
</g>
</svg>
