<svg width="68" height="20" viewBox="0 0 68 20" fill="none" xmlns="http://www.w3.org/2000/svg">
<g id="Frame 2085666821">
<g id="Group">
<path id="Vector" d="M7.38009 2.43164C9.40639 2.43164 10.5487 2.65513 11.6512 3.27096C12.858 3.9464 13.1461 5.27243 12.714 6.43954C12.2621 7.64638 10.9758 7.90959 9.74907 7.60664C9.34183 7.50235 9.03391 7.46262 8.64653 7.46262C7.13177 7.46262 6.33714 8.74892 6.33714 10.2041C6.33714 11.8629 7.01258 12.6972 7.93136 12.6972C8.35847 12.6972 8.56706 12.6128 8.56706 12.3893C8.56706 12.1658 8.36344 12.0417 8.01579 11.9374C7.39996 11.7337 6.86855 11.2818 6.86855 10.1395C6.86855 9.0767 7.62345 8.01389 9.05874 8.07349C12.3316 8.23738 13.9656 9.22073 13.9656 12.3893C13.9656 15.7416 11.3284 18.1354 7.28076 18.1354C2.6173 18.1354 0 15.3344 0 10.2041C0 5.07377 3.14871 2.43661 7.38009 2.43661V2.43164Z" fill="#5DAED6"/>
<path id="Vector_2" d="M14.3721 12.4713C14.3721 9.21828 16.8453 6.80957 20.3417 6.80957C23.8381 6.80957 26.2716 9.22325 26.2716 12.4713C26.2716 15.7193 23.7983 18.133 20.3417 18.133C16.8851 18.133 14.3721 15.7193 14.3721 12.4713ZM21.1214 12.4713C21.1214 11.9995 20.7738 11.6518 20.3467 11.6518C19.8749 11.6518 19.5272 11.9995 19.5272 12.4713C19.5272 12.9431 19.8749 13.2907 20.3467 13.2907C20.7738 13.2907 21.1214 12.9431 21.1214 12.4713Z" fill="#5DAED6"/>
<path id="Vector_3" d="M26.6826 9.11981C26.7025 7.83351 26.926 5.82708 27.214 4.82386C27.6858 3.18991 28.7685 2.10227 30.323 2.22643C31.8378 2.35059 32.5728 3.59716 32.7168 4.90333C32.8211 5.78238 32.7764 6.58197 32.5728 7.41633C33.0843 7.17298 33.7151 7.04882 34.3508 7.04882C36.8886 7.04882 38.8503 9.23404 38.8503 12.3232C38.8503 15.6953 36.8886 18.1289 33.1638 18.1289C30.0548 18.1289 28.2172 16.8227 27.3978 14.5729C26.8862 13.1625 26.6826 11.464 26.6826 9.11485V9.11981ZM33.8988 12.3082C33.8988 11.8364 33.5313 11.4888 33.0794 11.4888C32.6274 11.4888 32.2599 11.8364 32.2599 12.3082C32.2599 12.7801 32.6274 13.1277 33.0794 13.1277C33.5313 13.1277 33.8988 12.7801 33.8988 12.3082Z" fill="#5DAED6"/>
<path id="Vector_4" d="M40.0552 15.2687C39.3996 12.4875 39.3996 7.84888 40.0552 5.06768C40.4227 3.49333 41.3415 2.20703 43.0201 2.20703C44.6987 2.20703 45.6175 3.49333 45.9851 5.06768C46.6406 7.84888 46.6406 12.4875 45.9851 15.2687C45.6175 16.8431 44.6987 18.1294 43.0201 18.1294C41.3415 18.1294 40.4227 16.8431 40.0552 15.2687Z" fill="#5DAED6"/>
<path id="Vector_5" d="M47.6631 15.272C47.3154 13.7771 47.3154 11.4677 47.6631 9.97782C48.0306 8.40346 48.9494 7.11716 50.628 7.11716C52.3067 7.11716 53.2255 8.40346 53.593 9.97782C53.9406 11.4727 53.9406 13.7821 53.593 15.272C53.2255 16.8464 52.3067 18.1327 50.628 18.1327C48.9494 18.1327 48.0306 16.8464 47.6631 15.272ZM48.0505 4.31114C48.0505 2.96027 49.1927 1.89746 50.628 1.89746C52.0633 1.89746 53.1857 2.96027 53.1857 4.31114C53.1857 5.662 52.0385 6.74468 50.628 6.74468C49.2176 6.74468 48.0505 5.68187 48.0505 4.31114Z" fill="#5DAED6"/>
<path id="Vector_6" d="M67.2286 15.4741C66.881 16.9442 66.0218 18.1311 64.4673 18.1311C62.9128 18.1311 62.0536 16.9243 61.706 15.4741C61.5421 14.7788 61.5024 13.6564 61.5024 13.0406C61.5024 12.6929 61.3981 12.529 61.1945 12.529C61.11 12.529 60.9511 12.5489 60.7624 12.5886C60.7624 13.6316 60.6581 14.6546 60.4743 15.4691C60.1267 16.9392 59.2675 18.1262 57.713 18.1262C56.1585 18.1262 55.2993 16.9392 54.9517 15.4691C54.5643 13.7905 54.5643 11.1334 54.9517 9.45977C55.2993 7.98971 56.1585 6.80273 57.713 6.80273C58.7559 6.80273 59.491 7.33414 59.9628 8.1536C60.9263 7.23481 62.1728 6.8226 63.4989 6.8226C65.6046 6.8226 66.5035 7.88541 67.179 10.011C67.6111 11.3818 67.5862 13.8948 67.2187 15.4691L67.2286 15.4741Z" fill="#5DAED6"/>
</g>
</g>
</svg>
