<svg width="120" height="120" viewBox="0 0 120 120" fill="none" xmlns="http://www.w3.org/2000/svg">
<g id="Frame 2085666817">
<path id="Vector" d="M60 120C93.1371 120 120 93.1371 120 60C120 26.8629 93.1371 0 60 0C26.8629 0 0 26.8629 0 60C0 93.1371 26.8629 120 60 120Z" fill="#999999"/>
<g id="Group">
<g id="Group_2">
<path id="Vector_2" d="M20.546 109.701C16.6434 109.701 13.4629 106.521 13.4629 102.635V75.0938H106.059V102.635C106.059 106.538 102.878 109.701 98.9758 109.701H20.546Z" fill="#F7F7F7"/>
<path id="Vector_3" d="M103.479 77.6732V102.636C103.479 105.112 101.467 107.14 98.9745 107.14H20.5447C18.0691 107.14 16.0404 105.129 16.0404 102.636V77.6732H103.479ZM108.636 72.5156H10.8828V102.636C10.8828 107.965 15.2152 112.298 20.5447 112.298H98.9917C104.321 112.298 108.654 107.965 108.654 102.636V72.5156H108.636Z" fill="#999999"/>
</g>
<g id="Group_3">
<path id="Vector_4" d="M39.2514 84.5459H33.9734C33.1759 84.5459 32.5293 85.1924 32.5293 85.99V91.268C32.5293 92.0655 33.1759 92.7121 33.9734 92.7121H39.2514C40.0489 92.7121 40.6955 92.0655 40.6955 91.268V85.99C40.6955 85.1924 40.0489 84.5459 39.2514 84.5459Z" fill="#999999"/>
<path id="Vector_5" d="M27.681 84.5459H22.4031C21.6055 84.5459 20.959 85.1924 20.959 85.99V91.268C20.959 92.0655 21.6055 92.7121 22.4031 92.7121H27.681C28.4786 92.7121 29.1252 92.0655 29.1252 91.268V85.99C29.1252 85.1924 28.4786 84.5459 27.681 84.5459Z" fill="#999999"/>
<path id="Vector_6" d="M50.8393 84.5459H45.5613C44.7637 84.5459 44.1172 85.1924 44.1172 85.99V91.268C44.1172 92.0655 44.7637 92.7121 45.5613 92.7121H50.8393C51.6368 92.7121 52.2834 92.0655 52.2834 91.268V85.99C52.2834 85.1924 51.6368 84.5459 50.8393 84.5459Z" fill="#999999"/>
<path id="Vector_7" d="M62.4096 84.5459H57.1316C56.3341 84.5459 55.6875 85.1924 55.6875 85.99V91.268C55.6875 92.0655 56.3341 92.7121 57.1316 92.7121H62.4096C63.2071 92.7121 63.8537 92.0655 63.8537 91.268V85.99C63.8537 85.1924 63.2071 84.5459 62.4096 84.5459Z" fill="#999999"/>
<path id="Vector_8" d="M73.9799 84.5459H68.7019C67.9044 84.5459 67.2578 85.1924 67.2578 85.99V91.268C67.2578 92.0655 67.9044 92.7121 68.7019 92.7121H73.9799C74.7774 92.7121 75.424 92.0655 75.424 91.268V85.99C75.424 85.1924 74.7774 84.5459 73.9799 84.5459Z" fill="#999999"/>
<path id="Vector_9" d="M85.5658 84.5459H80.2879C79.4903 84.5459 78.8438 85.1924 78.8438 85.99V91.268C78.8438 92.0655 79.4903 92.7121 80.2879 92.7121H85.5658C86.3634 92.7121 87.0099 92.0655 87.0099 91.268V85.99C87.0099 85.1924 86.3634 84.5459 85.5658 84.5459Z" fill="#999999"/>
<path id="Vector_10" d="M97.1361 84.5459H91.8582C91.0606 84.5459 90.4141 85.1924 90.4141 85.99V91.268C90.4141 92.0655 91.0606 92.7121 91.8582 92.7121H97.1361C97.9337 92.7121 98.5803 92.0655 98.5803 91.268V85.99C98.5803 85.1924 97.9337 84.5459 97.1361 84.5459Z" fill="#999999"/>
<path id="Vector_11" d="M39.2514 95.8066H33.9734C33.1759 95.8066 32.5293 96.4532 32.5293 97.2508V102.529C32.5293 103.326 33.1759 103.973 33.9734 103.973H39.2514C40.0489 103.973 40.6955 103.326 40.6955 102.529V97.2508C40.6955 96.4532 40.0489 95.8066 39.2514 95.8066Z" fill="#999999"/>
<path id="Vector_12" d="M27.681 95.8066H22.4031C21.6055 95.8066 20.959 96.4532 20.959 97.2508V102.529C20.959 103.326 21.6055 103.973 22.4031 103.973H27.681C28.4786 103.973 29.1252 103.326 29.1252 102.529V97.2508C29.1252 96.4532 28.4786 95.8066 27.681 95.8066Z" fill="#999999"/>
<path id="Vector_13" d="M50.8393 95.8066H45.5613C44.7637 95.8066 44.1172 96.4532 44.1172 97.2508V102.529C44.1172 103.326 44.7637 103.973 45.5613 103.973H50.8393C51.6368 103.973 52.2834 103.326 52.2834 102.529V97.2508C52.2834 96.4532 51.6368 95.8066 50.8393 95.8066Z" fill="#999999"/>
<path id="Vector_14" d="M62.4096 95.8066H57.1316C56.3341 95.8066 55.6875 96.4532 55.6875 97.2508V102.529C55.6875 103.326 56.3341 103.973 57.1316 103.973H62.4096C63.2071 103.973 63.8537 103.326 63.8537 102.529V97.2508C63.8537 96.4532 63.2071 95.8066 62.4096 95.8066Z" fill="#999999"/>
<path id="Vector_15" d="M73.9779 95.8066H68.7C67.9024 95.8066 67.2559 96.4532 67.2559 97.2508V102.529C67.2559 103.326 67.9024 103.973 68.7 103.973H73.9779C74.7755 103.973 75.422 103.326 75.422 102.529V97.2508C75.422 96.4532 74.7755 95.8066 73.9779 95.8066Z" fill="#999999"/>
<path id="Vector_16" d="M85.5658 95.8066H80.2879C79.4903 95.8066 78.8438 96.4532 78.8438 97.2508V102.529C78.8438 103.326 79.4903 103.973 80.2879 103.973H85.5658C86.3634 103.973 87.0099 103.326 87.0099 102.529V97.2508C87.0099 96.4532 86.3634 95.8066 85.5658 95.8066Z" fill="#999999"/>
<path id="Vector_17" d="M97.1361 95.8066H91.8582C91.0606 95.8066 90.4141 96.4532 90.4141 97.2508V102.529C90.4141 103.326 91.0606 103.973 91.8582 103.973H97.1361C97.9337 103.973 98.5803 103.326 98.5803 102.529V97.2508C98.5803 96.4532 97.9337 95.8066 97.1361 95.8066Z" fill="#999999"/>
</g>
<g id="Group_4" opacity="0.2">
<path id="Vector_18" d="M103.479 77.6719H16.041V81.8495H103.479V77.6719Z" fill="#999999"/>
</g>
</g>
<path id="Vector_19" d="M78.635 37.9113C78.635 45.6649 71.8614 52.6104 64.125 52.6104C56.3886 52.6104 49.082 45.3038 49.082 37.5674C49.082 29.8311 55.2711 23.1434 64.933 23.2293C72.6866 23.2981 78.6522 30.1749 78.6522 37.9285L78.635 37.9113Z" fill="#F7F7F7" stroke="#999999" stroke-width="3.09456" stroke-miterlimit="10"/>
<g id="Group_5">
<path id="Vector_20" d="M70.9347 89.828C70.0407 89.828 69.1811 89.6045 68.3731 89.1575C68.3044 89.1231 68.2528 89.0887 68.2012 89.0371C66.7227 87.954 65.9319 86.6474 65.8459 85.1689C65.674 82.1775 68.5279 79.5643 70.8144 77.4669C71.4333 76.8996 72.0178 76.3666 72.4476 75.9024C73.015 75.2148 73.8058 74.4583 74.6482 73.6675C76.3158 72.0686 78.5852 69.9196 78.4304 68.4927C77.8459 66.997 76.866 66.2577 75.4734 66.2577C74.4763 66.2577 73.3416 66.6188 72.1726 67.3065C67.3416 69.7133 64.2471 70.9855 61.3244 70.9855C57.1296 70.9855 53.9834 68.2176 49.3072 63.679C48.6367 63.06 48.2413 62.9913 48.0866 62.9913C47.7943 62.9913 47.3989 63.3179 46.9691 63.9024C46.2299 64.8136 45.5766 65.742 44.9233 66.6532C43.376 68.8365 41.7599 71.1059 39.5078 72.7907C37.1353 74.5787 34.1955 74.8022 31.9089 74.8022C30.8602 74.8022 29.8115 74.7506 28.78 74.699C28.1439 74.6646 27.525 74.6302 26.9061 74.6131C25.5307 74.5443 24.2069 74.5271 22.866 74.5099C21.2327 74.4927 19.5823 74.4583 17.9491 74.3552C15.0092 74.3552 12.3445 72.5844 11.5365 70.1603C10.866 68.0973 11.6568 65.9999 13.6683 64.5214C13.7886 64.4354 13.9261 64.3494 14.0809 64.2979C16.0236 63.5586 18.1897 63.232 20.9061 63.232C22.4362 63.232 23.9834 63.3351 25.462 63.4383C26.9405 63.5414 28.3502 63.6274 29.7428 63.6274C30.0694 63.6274 30.3961 63.6274 30.7227 63.6274C30.7399 63.6274 30.929 63.6274 30.9978 63.6274C31.2213 63.6618 31.4448 63.679 31.6511 63.679C32.9233 63.679 33.8516 63.1632 34.5565 62.0629C34.5909 62.0113 34.6253 61.9598 34.6597 61.9254C36.2241 59.9483 37.8058 57.8509 39.3703 55.7706C40.1267 54.7735 40.866 53.7764 41.6224 52.7964C42.843 51.2835 44.3387 49.7363 46.4362 49.3408C46.7456 49.2893 47.0551 49.2549 47.3473 49.2549C49.4963 49.2549 51.439 50.5443 53.1582 51.679C53.6912 52.04 54.2241 52.3838 54.7399 52.6933C55.6855 53.1918 56.6998 53.9139 57.6797 54.5844C59.5021 55.8566 61.376 57.1632 62.9233 57.232C63.9376 57.1632 66.035 56.6474 67.8746 56.2004C69.164 55.8738 70.3846 55.5815 71.3989 55.3924C72.8087 54.997 74.4935 54.5844 76.247 54.5844C78.3617 54.5844 80.1668 55.1689 81.8001 56.3724C83.8803 57.7649 88.9519 61.7019 89.9834 67.1345C90.482 69.7821 89.9319 72.2921 88.3502 74.5959L88.2127 74.8194C85.1181 79.4268 80.717 83.4497 77.1754 86.699C75.7141 88.04 73.4791 89.828 70.9175 89.828H70.9347Z" fill="#F7F7F7"/>
<path id="Vector_21" d="M47.3292 50.9743C49.547 50.9743 51.7648 52.9686 53.8794 54.1721C56.6473 55.6506 59.8278 58.8311 62.8536 58.9514C65.0542 58.8311 69.2318 57.5245 71.7074 57.0775C73.186 56.6649 74.7332 56.3039 76.2461 56.3039C77.7934 56.3039 79.3235 56.6821 80.7848 57.748C85.908 61.2036 91.0828 67.5646 86.9395 73.6162L86.7504 73.9084C83.8966 78.1549 79.8908 81.8683 76.0226 85.4099C74.6645 86.6649 72.8077 88.0918 70.9338 88.0918C70.3665 88.0918 69.7819 87.9543 69.2146 87.6448C64.4524 84.1549 71.2605 79.7193 73.7189 77.0718C75.8507 74.5445 80.7504 71.2265 80.0971 68.046C79.2031 65.5875 77.4668 64.5388 75.4725 64.5388C74.1315 64.5388 72.6874 65.003 71.2948 65.8282C66.7734 68.0804 63.8507 69.2666 61.3235 69.2666C57.9195 69.2666 55.2891 67.1004 50.5097 62.4414C49.6501 61.6506 48.8593 61.2551 48.1029 61.2551C47.2261 61.2551 46.4009 61.7881 45.5928 62.8712C43.2891 65.7079 41.4496 69.1806 38.4754 71.4156C36.6702 72.7738 34.3149 73.0832 31.908 73.0832C30.2404 73.0832 28.5384 72.9285 26.9567 72.8941C23.9825 72.7566 21.0255 72.8254 18.0513 72.6362C17.9997 72.6362 17.9481 72.6362 17.8966 72.6362C14.0799 72.6362 10.9682 68.6305 14.6645 65.9142C16.6415 65.1749 18.739 64.9514 20.888 64.9514C23.8106 64.9514 26.8192 65.3468 29.7246 65.3468C30.0685 65.3468 30.4295 65.3468 30.7734 65.3296C31.0656 65.364 31.3751 65.3812 31.6501 65.3812C33.4553 65.3812 34.951 64.6076 35.9997 62.9743C38.3206 60.0517 40.6759 56.8368 42.9797 53.811C43.9596 52.5904 45.1802 51.301 46.7447 51.0087C46.951 50.9743 47.1401 50.9572 47.3464 50.9572M47.3292 47.5359C46.9338 47.5359 46.5384 47.5703 46.143 47.6391C43.1 48.2064 41.1229 50.6305 40.2977 51.662C40.2805 51.6964 40.2633 51.7136 40.2289 51.748C39.4897 52.7279 38.7332 53.7251 37.9768 54.7394C36.4295 56.7852 34.8478 58.917 33.3006 60.8597C33.2318 60.9457 33.163 61.0488 33.0943 61.1348C32.6989 61.7365 32.3206 61.96 31.6501 61.96C31.5126 61.96 31.3579 61.96 31.2032 61.9256C31.0656 61.9084 30.9109 61.8913 30.7734 61.8913C30.7218 61.8913 30.6874 61.8913 30.6358 61.8913C30.3264 61.8913 30.0169 61.8913 29.7246 61.8913C28.4009 61.8913 27.0255 61.8053 25.5642 61.7021C24.0513 61.599 22.4696 61.4958 20.888 61.4958C17.9481 61.4958 15.5928 61.8741 13.461 62.6821C13.1688 62.7852 12.8937 62.94 12.6358 63.1291C10.0398 65.0374 8.97392 67.9256 9.8851 70.6763C10.8994 73.8053 14.2691 76.0746 17.8966 76.0746H17.9653C19.6158 76.1778 21.2662 76.195 22.8478 76.2294C24.206 76.2465 25.4954 76.2637 26.802 76.3325C27.4553 76.3497 28.0742 76.3841 28.6931 76.4185C29.7418 76.47 30.8077 76.5388 31.9252 76.5388C34.2805 76.5388 37.7361 76.2981 40.5556 74.1835C43.0312 72.3268 44.802 69.8511 46.3493 67.6506C47.0026 66.7222 47.6387 65.8454 48.2748 65.0546C53.1745 69.8339 56.5441 72.7222 61.3407 72.7222C64.59 72.7222 67.8908 71.3812 72.8421 68.9228C72.9109 68.8884 72.9968 68.854 73.0656 68.8024C73.9424 68.2867 74.802 67.9944 75.4897 67.9944C75.8335 67.9944 76.2805 67.9944 76.6931 68.7852C76.3493 69.6964 74.441 71.5188 73.4954 72.4299C72.653 73.238 71.845 74.0116 71.1745 74.8024C70.8135 75.1806 70.2633 75.6792 69.696 76.2122C67.1344 78.5503 63.9539 81.4729 64.1774 85.2723C64.2461 86.6649 64.8478 88.6935 67.2203 90.4299C67.3407 90.5159 67.461 90.5847 67.5814 90.6534C68.6301 91.238 69.7819 91.5474 70.9682 91.5474C74.1315 91.5474 76.7103 89.5016 78.3951 87.9543C81.9883 84.6534 86.4754 80.5445 89.6559 75.8339C89.6903 75.7996 89.7075 75.748 89.7246 75.7136L89.8622 75.4729C91.6501 72.8253 92.2862 69.8168 91.7189 66.791C90.567 60.7738 85.1516 56.5102 82.7963 54.9285C80.9052 53.5531 78.7046 52.8483 76.2805 52.8483C74.3722 52.8483 72.6014 53.2609 70.9682 53.7079C69.9367 53.897 68.7504 54.1892 67.4954 54.4987C65.9137 54.8941 63.9711 55.3755 62.888 55.4786C61.8392 55.3411 60.1029 54.1205 58.6931 53.1405C57.6788 52.4357 56.6473 51.7136 55.5814 51.1291C55.1344 50.8712 54.653 50.5445 54.1201 50.2007C52.2977 48.9973 50.0284 47.4844 47.3636 47.4844L47.3292 47.5359Z" fill="#999999"/>
</g>
<g id="Group_6">
<path id="Vector_22" d="M19.1369 60.1899C17.7959 60.1899 16.5409 59.4678 15.8532 58.2988L14.4951 55.9607C13.8246 54.7916 13.8246 53.3475 14.4951 52.1784L15.8532 49.8403C16.5237 48.6713 17.7787 47.9492 19.1369 47.9492H21.8532C23.1942 47.9492 24.4492 48.6713 25.1197 49.8403L26.4779 52.1784C27.1483 53.3475 27.1483 54.7916 26.4779 55.9607L25.1197 58.2988C24.4492 59.4678 23.1942 60.1899 21.8532 60.1899H19.1369Z" fill="white"/>
<path id="Vector_23" d="M21.853 48.7885C22.9018 48.7885 23.8645 49.3387 24.3803 50.2499L25.7384 52.588C26.2542 53.4991 26.2542 54.5994 25.7384 55.5106L24.3803 57.8487C23.8645 58.7599 22.9018 59.31 21.853 59.31H19.1367C18.088 59.31 17.1253 58.7599 16.6095 57.8487L15.2513 55.5106C14.7356 54.5994 14.7356 53.4991 15.2513 52.588L16.6095 50.2499C17.1253 49.3387 18.088 48.7885 19.1367 48.7885H21.853ZM21.853 47.0693H19.1367C17.4863 47.0693 15.939 47.9633 15.1138 49.3903L13.7556 51.7284C12.9304 53.1553 12.9304 54.9433 13.7556 56.3702L15.1138 58.7083C15.939 60.1352 17.4863 61.0292 19.1367 61.0292H21.853C23.5035 61.0292 25.0508 60.1352 25.876 58.7083L27.2341 56.3702C28.0594 54.9433 28.0594 53.1553 27.2341 51.7284L25.876 49.3903C25.0508 47.9633 23.5035 47.0693 21.853 47.0693Z" fill="#B3B3B3"/>
</g>
<g id="Group_7">
<path id="Vector_24" d="M98.6303 63.0355C98.1661 63.0355 97.7019 62.8464 97.3753 62.5198L95.9828 61.1272C95.5358 60.6802 95.3638 60.0097 95.5186 59.408L96.0343 57.4997C96.1891 56.8808 96.6876 56.3994 97.2893 56.2447L99.1976 55.7289C99.3524 55.6945 99.5071 55.6602 99.6618 55.6602C100.143 55.6602 100.59 55.8493 100.917 56.1759L102.309 57.5685C102.756 58.0155 102.928 58.6688 102.774 59.2877L102.258 61.196C102.103 61.8149 101.605 62.2963 101.003 62.451L99.0945 62.9667C98.9398 63.0011 98.785 63.0355 98.6303 63.0355Z" fill="white"/>
<path id="Vector_25" d="M99.662 56.4995C99.9026 56.4995 100.143 56.6026 100.315 56.7745L101.708 58.1671C101.948 58.4078 102.034 58.7344 101.948 59.0611L101.433 60.9694C101.347 61.2788 101.106 61.5367 100.779 61.6227L98.8711 62.1384C98.8711 62.1384 98.7164 62.1728 98.6304 62.1728C98.3898 62.1728 98.1491 62.0697 97.9771 61.8978L96.5846 60.5052C96.3439 60.2645 96.2579 59.9379 96.3439 59.6112L96.8597 57.7029C96.9456 57.3935 97.1863 57.1356 97.513 57.0496L99.4213 56.5339C99.4213 56.5339 99.576 56.4995 99.662 56.4995ZM99.662 54.7803C99.4385 54.7803 99.1978 54.8147 98.9743 54.8662L97.066 55.382C96.1548 55.6227 95.4499 56.3447 95.192 57.2559L94.6763 59.1642C94.4356 60.0754 94.6935 61.0553 95.364 61.7086L96.7565 63.1012C97.2551 63.5998 97.9256 63.8748 98.6304 63.8748C98.8539 63.8748 99.0946 63.8404 99.3181 63.7889L101.226 63.2731C102.138 63.0324 102.842 62.3104 103.1 61.3992L103.616 59.4909C103.857 58.5797 103.599 57.5998 102.928 56.9465L101.536 55.5539C101.037 55.0553 100.367 54.7803 99.662 54.7803Z" fill="#B3B3B3"/>
</g>
<path id="Vector_26" d="M27.6289 28.6582C27.6289 28.6582 34.4713 34.194 40.6948 34.5722" stroke="#F7F7F7" stroke-width="2.32092" stroke-linecap="round" stroke-linejoin="round"/>
<path id="Vector_27" d="M40.6934 16.0605L47.0544 22.4216" stroke="#F7F7F7" stroke-width="2.32092" stroke-linecap="round" stroke-linejoin="round"/>
<path id="Vector_28" d="M64.7285 10.4707V18.2071" stroke="#F7F7F7" stroke-width="2.32092" stroke-linecap="round" stroke-linejoin="round"/>
<path id="Vector_29" d="M86.9925 18.2051L81.4395 23.7581" stroke="#F7F7F7" stroke-width="2.32092" stroke-linecap="round" stroke-linejoin="round"/>
<path id="Vector_30" d="M97.2733 29.5205C97.2733 29.5205 88.1788 35.5377 84.2246 35.83" stroke="#F7F7F7" stroke-width="2.32092" stroke-linecap="round" stroke-linejoin="round"/>
<path id="Vector_31" d="M88.4531 29.5205C88.4531 29.5205 93.542 37.5492 89.0892 43.1366" stroke="#F7F7F7" stroke-width="2.32092" stroke-linecap="round" stroke-linejoin="round"/>
<path id="Vector_32" d="M38.3731 27.9375C38.3731 27.9375 31.9261 40.1094 37.6511 45.4217" stroke="#F7F7F7" stroke-width="2.32092" stroke-linecap="round" stroke-linejoin="round"/>
<path id="Vector_33" d="M59.2949 44.2222C59.2949 44.2222 66.9282 47.3855 71.1918 39.2881" stroke="#999999" stroke-width="1.54728" stroke-linecap="round" stroke-linejoin="round"/>
<path id="Vector_34" d="M70.8828 40.1426L71.4845 43.9076C71.6049 44.4062 71.1063 44.8188 70.6421 44.6297L67.9258 43.5638" stroke="#999999" stroke-width="1.54728" stroke-linecap="round" stroke-linejoin="round"/>
</g>
</svg>
