<svg width="160" height="160" viewBox="0 0 160 160" fill="none" xmlns="http://www.w3.org/2000/svg">
<g id="Frame 2085666817">
<path id="Vector" d="M80 160C124.183 160 160 124.183 160 80C160 35.8172 124.183 0 80 0C35.8172 0 0 35.8172 0 80C0 124.183 35.8172 160 80 160Z" fill="#5DAED6"/>
<g id="Group">
<g id="Group_2">
<path id="Vector_2" d="M27.3953 146.268C22.1919 146.268 17.9512 142.028 17.9512 136.847V100.125H141.412V136.847C141.412 142.051 137.172 146.268 131.968 146.268H27.3953Z" fill="#F7F7F7"/>
<path id="Vector_3" d="M137.973 103.564V136.848C137.973 140.149 135.291 142.854 131.967 142.854H27.3942C24.0934 142.854 21.3885 140.172 21.3885 136.848V103.564H137.973ZM144.85 96.6875H14.5117V136.848C14.5117 143.954 20.2882 149.73 27.3942 149.73H131.99C139.096 149.73 144.873 143.954 144.873 136.848V96.6875H144.85Z" fill="#5DAED6"/>
</g>
<g id="Group_3">
<path id="Vector_4" d="M52.3338 112.732H45.2966C44.2332 112.732 43.3711 113.594 43.3711 114.657V121.695C43.3711 122.758 44.2332 123.62 45.2966 123.62H52.3338C53.3973 123.62 54.2593 122.758 54.2593 121.695V114.657C54.2593 113.594 53.3973 112.732 52.3338 112.732Z" fill="#5DAED6"/>
<path id="Vector_5" d="M36.9081 112.732H29.8708C28.8074 112.732 27.9453 113.594 27.9453 114.657V121.695C27.9453 122.758 28.8074 123.62 29.8708 123.62H36.9081C37.9715 123.62 38.8336 122.758 38.8336 121.695V114.657C38.8336 113.594 37.9715 112.732 36.9081 112.732Z" fill="#5DAED6"/>
<path id="Vector_6" d="M67.785 112.732H60.7478C59.6843 112.732 58.8223 113.594 58.8223 114.657V121.695C58.8223 122.758 59.6843 123.62 60.7478 123.62H67.785C68.8484 123.62 69.7105 122.758 69.7105 121.695V114.657C69.7105 113.594 68.8484 112.732 67.785 112.732Z" fill="#5DAED6"/>
<path id="Vector_7" d="M83.2108 112.732H76.1735C75.1101 112.732 74.248 113.594 74.248 114.657V121.695C74.248 122.758 75.1101 123.62 76.1735 123.62H83.2108C84.2742 123.62 85.1363 122.758 85.1363 121.695V114.657C85.1363 113.594 84.2742 112.732 83.2108 112.732Z" fill="#5DAED6"/>
<path id="Vector_8" d="M98.6385 112.732H91.6013C90.5379 112.732 89.6758 113.594 89.6758 114.657V121.695C89.6758 122.758 90.5379 123.62 91.6013 123.62H98.6385C99.702 123.62 100.564 122.758 100.564 121.695V114.657C100.564 113.594 99.702 112.732 98.6385 112.732Z" fill="#5DAED6"/>
<path id="Vector_9" d="M114.09 112.732H107.052C105.989 112.732 105.127 113.594 105.127 114.657V121.695C105.127 122.758 105.989 123.62 107.052 123.62H114.09C115.153 123.62 116.015 122.758 116.015 121.695V114.657C116.015 113.594 115.153 112.732 114.09 112.732Z" fill="#5DAED6"/>
<path id="Vector_10" d="M129.515 112.732H122.478C121.415 112.732 120.553 113.594 120.553 114.657V121.695C120.553 122.758 121.415 123.62 122.478 123.62H129.515C130.579 123.62 131.441 122.758 131.441 121.695V114.657C131.441 113.594 130.579 112.732 129.515 112.732Z" fill="#5DAED6"/>
<path id="Vector_11" d="M52.3338 127.745H45.2966C44.2332 127.745 43.3711 128.607 43.3711 129.67V136.707C43.3711 137.771 44.2332 138.633 45.2966 138.633H52.3338C53.3973 138.633 54.2593 137.771 54.2593 136.707V129.67C54.2593 128.607 53.3973 127.745 52.3338 127.745Z" fill="#5DAED6"/>
<path id="Vector_12" d="M36.9081 127.745H29.8708C28.8074 127.745 27.9453 128.607 27.9453 129.67V136.707C27.9453 137.771 28.8074 138.633 29.8708 138.633H36.9081C37.9715 138.633 38.8336 137.771 38.8336 136.707V129.67C38.8336 128.607 37.9715 127.745 36.9081 127.745Z" fill="#5DAED6"/>
<path id="Vector_13" d="M67.785 127.745H60.7478C59.6843 127.745 58.8223 128.607 58.8223 129.67V136.707C58.8223 137.771 59.6843 138.633 60.7478 138.633H67.785C68.8484 138.633 69.7105 137.771 69.7105 136.707V129.67C69.7105 128.607 68.8484 127.745 67.785 127.745Z" fill="#5DAED6"/>
<path id="Vector_14" d="M83.2108 127.745H76.1735C75.1101 127.745 74.248 128.607 74.248 129.67V136.707C74.248 137.771 75.1101 138.633 76.1735 138.633H83.2108C84.2742 138.633 85.1363 137.771 85.1363 136.707V129.67C85.1363 128.607 84.2742 127.745 83.2108 127.745Z" fill="#5DAED6"/>
<path id="Vector_15" d="M98.6385 127.745H91.6013C90.5379 127.745 89.6758 128.607 89.6758 129.67V136.707C89.6758 137.771 90.5379 138.633 91.6013 138.633H98.6385C99.702 138.633 100.564 137.771 100.564 136.707V129.67C100.564 128.607 99.702 127.745 98.6385 127.745Z" fill="#5DAED6"/>
<path id="Vector_16" d="M114.09 127.745H107.052C105.989 127.745 105.127 128.607 105.127 129.67V136.707C105.127 137.771 105.989 138.633 107.052 138.633H114.09C115.153 138.633 116.015 137.771 116.015 136.707V129.67C116.015 128.607 115.153 127.745 114.09 127.745Z" fill="#5DAED6"/>
<path id="Vector_17" d="M129.515 127.745H122.478C121.415 127.745 120.553 128.607 120.553 129.67V136.707C120.553 137.771 121.415 138.633 122.478 138.633H129.515C130.579 138.633 131.441 137.771 131.441 136.707V129.67C131.441 128.607 130.579 127.745 129.515 127.745Z" fill="#5DAED6"/>
</g>
<g id="Group_4" opacity="0.2">
<path id="Vector_18" d="M137.973 103.562H21.3887V109.133H137.973V103.562Z" fill="#5DAED6"/>
</g>
</g>
<path id="Vector_19" d="M104.847 50.5458C104.847 60.8839 95.8159 70.1446 85.5007 70.1446C75.1855 70.1446 65.4434 60.4025 65.4434 50.0873C65.4434 39.7721 73.6955 30.8552 86.578 30.9698C96.9161 31.0615 104.87 40.2306 104.87 50.5687L104.847 50.5458Z" fill="#F7F7F7" stroke="#5DAED6" stroke-width="4.12607" stroke-miterlimit="10"/>
<g id="Group_5">
<path id="Vector_20" d="M94.5796 119.772C93.3877 119.772 92.2415 119.474 91.1642 118.878C91.0725 118.832 91.0037 118.787 90.9349 118.718C88.9636 117.274 87.9092 115.532 87.7945 113.56C87.5653 109.572 91.3705 106.087 94.4192 103.291C95.2444 102.534 96.0238 101.824 96.5968 101.205C97.3533 100.288 98.4077 99.2794 99.5309 98.225C101.754 96.0931 104.78 93.2278 104.574 91.3252C103.795 89.331 102.488 88.3453 100.631 88.3453C99.3017 88.3453 97.7888 88.8267 96.2301 89.7436C89.7888 92.9527 85.6627 94.649 81.7659 94.649C76.1728 94.649 71.9779 90.9585 65.743 84.9069C64.849 84.0817 64.3218 83.99 64.1155 83.99C63.7258 83.99 63.1986 84.4255 62.6255 85.2049C61.6398 86.4198 60.7688 87.6576 59.8977 88.8725C57.8347 91.7837 55.6799 94.8095 52.6771 97.0559C49.5137 99.4398 45.594 99.7378 42.5453 99.7378C41.147 99.7378 39.7487 99.6691 38.3733 99.6003C37.5252 99.5545 36.7 99.5086 35.8748 99.4857C34.041 99.394 32.2759 99.3711 30.488 99.3482C28.3103 99.3252 26.1097 99.2794 23.9321 99.1419C20.0123 99.1419 16.4593 96.7808 15.3819 93.5487C14.488 90.798 15.5424 88.0015 18.2243 86.0301C18.3848 85.9155 18.5682 85.8009 18.7745 85.7321C21.3647 84.7464 24.253 84.3109 27.8748 84.3109C29.9149 84.3109 31.9779 84.4484 33.9493 84.586C35.9206 84.7235 37.8003 84.8381 39.657 84.8381C40.0925 84.8381 40.5281 84.8381 40.9636 84.8381C40.9865 84.8381 41.2387 84.8381 41.3304 84.8381C41.6284 84.884 41.9263 84.9069 42.2014 84.9069C43.8977 84.9069 45.1355 84.2192 46.0753 82.7522C46.1212 82.6834 46.167 82.6146 46.2129 82.5688C48.2988 79.9327 50.4077 77.1361 52.4937 74.3625C53.5023 73.033 54.488 71.7035 55.4965 70.3969C57.1241 68.3797 59.1183 66.3166 61.9149 65.7894C62.3275 65.7206 62.7401 65.6748 63.1298 65.6748C65.9951 65.6748 68.5854 67.394 70.8776 68.9069C71.5882 69.3883 72.2988 69.8467 72.9865 70.2593C74.2473 70.9241 75.5997 71.8868 76.9063 72.7808C79.3361 74.4771 81.8347 76.2192 83.8977 76.3109C85.2501 76.2192 88.0467 75.5315 90.4994 74.9356C92.2186 74.5 93.8461 74.1103 95.1985 73.8582C97.0782 73.331 99.3246 72.7808 101.663 72.7808C104.482 72.7808 106.889 73.5602 109.067 75.1648C111.84 77.0215 118.603 82.2708 119.978 89.5144C120.643 93.0444 119.909 96.3911 117.8 99.4628L117.617 99.7608C113.491 105.904 107.623 111.268 102.901 115.6C100.952 117.388 97.9722 119.772 94.5567 119.772H94.5796Z" fill="#F7F7F7"/>
<path id="Vector_21" d="M63.1069 67.9658C66.0639 67.9658 69.021 70.6248 71.8405 72.2294C75.531 74.2008 79.7717 78.4414 83.8061 78.6019C86.7402 78.4414 92.3104 76.6993 95.6112 76.1033C97.5826 75.5532 99.6456 75.0718 101.663 75.0718C103.726 75.0718 105.766 75.5761 107.714 76.9973C114.545 81.6048 121.445 90.0861 115.921 98.1549L115.669 98.5446C111.863 104.206 106.522 109.158 101.365 113.88C99.5539 115.553 97.0783 117.456 94.5797 117.456C93.8233 117.456 93.0439 117.272 92.2874 116.86C85.9379 112.206 95.0152 106.292 98.2932 102.762C101.136 99.3927 107.669 94.9687 106.797 90.728C105.605 87.45 103.29 86.0518 100.631 86.0518C98.8433 86.0518 96.9178 86.6707 95.0611 87.771C89.0324 90.7738 85.1356 92.3555 81.766 92.3555C77.2273 92.3555 73.7201 89.4672 67.3476 83.2552C66.2015 82.2008 65.147 81.6735 64.1385 81.6735C62.9694 81.6735 61.8691 82.3841 60.7917 83.8283C57.7201 87.6105 55.2674 92.2409 51.3018 95.2208C48.8949 97.0317 45.7545 97.4443 42.5453 97.4443C40.3218 97.4443 38.0525 97.238 35.9436 97.1922C31.978 97.0088 28.0353 97.1005 24.0697 96.8483C24.0009 96.8483 23.9321 96.8483 23.8634 96.8483C18.7746 96.8483 14.6256 91.5073 19.5539 87.8856C22.19 86.8999 24.9866 86.6019 27.8519 86.6019C31.7488 86.6019 35.7602 87.1291 39.6342 87.1291C40.0926 87.1291 40.574 87.1291 41.0324 87.1062C41.4221 87.152 41.8347 87.175 42.2015 87.175C44.6084 87.175 46.6026 86.1434 48.0009 83.9658C51.0955 80.0689 54.2359 75.7824 57.3075 71.748C58.6141 70.1205 60.2416 68.4013 62.3276 68.0116C62.6026 67.9658 62.8548 67.9429 63.1299 67.9429M63.1069 63.3813C62.5797 63.3813 62.0525 63.4271 61.5253 63.5188C57.468 64.2753 54.8319 67.5073 53.7316 68.8827C53.7086 68.9285 53.6857 68.9515 53.6399 68.9973C52.6542 70.3039 51.6456 71.6334 50.637 72.9858C48.574 75.7136 46.4651 78.5561 44.4021 81.1463C44.3104 81.2609 44.2187 81.3985 44.127 81.5131C43.5998 82.3154 43.0955 82.6134 42.2015 82.6134C42.0181 82.6134 41.8118 82.6134 41.6055 82.5675C41.4221 82.5446 41.2158 82.5217 41.0324 82.5217C40.9637 82.5217 40.9178 82.5217 40.8491 82.5217C40.4364 82.5217 40.0238 82.5217 39.6342 82.5217C37.8691 82.5217 36.0353 82.4071 34.0869 82.2695C32.0697 82.132 29.9608 81.9944 27.8519 81.9944C23.9321 81.9944 20.7917 82.4987 17.9493 83.5761C17.5597 83.7136 17.1929 83.9199 16.8491 84.1721C13.3877 86.7165 11.9665 90.5675 13.1814 94.2351C14.5339 98.4071 19.0267 101.433 23.8634 101.433H23.9551C26.1556 101.57 28.3562 101.593 30.4651 101.639C32.276 101.662 33.9952 101.685 35.7373 101.777C36.6084 101.8 37.4336 101.845 38.2588 101.891C39.6571 101.96 41.0783 102.052 42.5682 102.052C45.7087 102.052 50.3161 101.731 54.0754 98.9114C57.3763 96.4357 59.7373 93.1348 61.8003 90.2008C62.6714 88.9629 63.5195 87.7939 64.3677 86.7394C70.9006 93.1119 75.3935 96.9629 81.7889 96.9629C86.1213 96.9629 90.5224 95.175 97.1241 91.897C97.2158 91.8512 97.3304 91.8053 97.4221 91.7366C98.5912 91.0489 99.7373 90.6592 100.654 90.6592C101.113 90.6592 101.709 90.6592 102.259 91.7136C101.8 92.9285 99.2559 95.3583 97.9952 96.5732C96.872 97.6506 95.7946 98.6821 94.9006 99.7366C94.4193 100.241 93.6857 100.906 92.9293 101.616C89.5138 104.734 85.2731 108.631 85.5711 113.696C85.6628 115.553 86.4651 118.258 89.6284 120.573C89.7889 120.688 89.9493 120.78 90.1098 120.871C91.5081 121.651 93.0439 122.063 94.6255 122.063C98.8433 122.063 102.282 119.335 104.528 117.272C109.319 112.871 115.302 107.393 119.542 101.112C119.588 101.066 119.611 100.997 119.634 100.951L119.818 100.631C122.201 97.1005 123.05 93.089 122.293 89.0546C120.757 81.0317 113.537 75.3469 110.396 73.238C107.875 71.4042 104.941 70.4644 101.709 70.4644C99.1642 70.4644 96.8032 71.0145 94.6255 71.6105C93.2502 71.8626 91.6685 72.2523 89.9952 72.6649C87.8863 73.1922 85.296 73.834 83.8519 73.9715C82.4536 73.7881 80.1385 72.1606 78.2588 70.854C76.9064 69.9142 75.531 68.9515 74.1098 68.1721C73.5138 67.8283 72.872 67.3927 72.1614 66.9343C69.7316 65.3297 66.7058 63.3125 63.1528 63.3125L63.1069 63.3813Z" fill="#5DAED6"/>
</g>
<g id="Group_6">
<path id="Vector_22" d="M25.5139 80.253C23.7259 80.253 22.0526 79.2903 21.1357 77.7316L19.3248 74.6141C18.4308 73.0553 18.4308 71.1298 19.3248 69.5711L21.1357 66.4536C22.0297 64.8949 23.703 63.9321 25.5139 63.9321H29.1357C30.9236 63.9321 32.597 64.8949 33.491 66.4536L35.3019 69.5711C36.1958 71.1298 36.1958 73.0553 35.3019 74.6141L33.491 77.7316C32.597 79.2903 30.9236 80.253 29.1357 80.253H25.5139Z" fill="white"/>
<path id="Vector_23" d="M29.1354 65.0554C30.5337 65.0554 31.8174 65.789 32.5051 67.0039L34.316 70.1213C35.0036 71.3362 35.0036 72.8033 34.316 74.0182L32.5051 77.1357C31.8174 78.3506 30.5337 79.0841 29.1354 79.0841H25.5137C24.1154 79.0841 22.8317 78.3506 22.144 77.1357L20.3332 74.0182C19.6455 72.8033 19.6455 71.3362 20.3332 70.1213L22.144 67.0039C22.8317 65.789 24.1154 65.0554 25.5137 65.0554H29.1354ZM29.1354 62.7632H25.5137C23.3131 62.7632 21.2501 63.9552 20.1498 65.8577L18.3389 68.9752C17.2386 70.8778 17.2386 73.2618 18.3389 75.1643L20.1498 78.2818C21.2501 80.1844 23.3131 81.3764 25.5137 81.3764H29.1354C31.336 81.3764 33.3991 80.1844 34.4993 78.2818L36.3102 75.1643C37.4105 73.2618 37.4105 70.8778 36.3102 68.9752L34.4993 65.8577C33.3991 63.9552 31.336 62.7632 29.1354 62.7632Z" fill="#96D0E2"/>
</g>
<g id="Group_7">
<path id="Vector_24" d="M131.508 84.0389C130.889 84.0389 130.271 83.7867 129.835 83.3512L127.978 81.4945C127.382 80.8985 127.153 80.0045 127.359 79.2022L128.047 76.6578C128.253 75.8326 128.918 75.1908 129.72 74.9844L132.265 74.2968C132.471 74.2509 132.677 74.2051 132.884 74.2051C133.526 74.2051 134.122 74.4572 134.557 74.8928L136.414 76.7495C137.01 77.3455 137.239 78.2165 137.033 79.0418L136.345 81.5862C136.139 82.4114 135.474 83.0532 134.672 83.2595L132.127 83.9472C131.921 83.993 131.715 84.0389 131.508 84.0389Z" fill="white"/>
<path id="Vector_25" d="M132.883 75.3284C133.204 75.3284 133.524 75.4659 133.754 75.6952L135.61 77.5519C135.931 77.8728 136.046 78.3083 135.931 78.7439L135.244 81.2883C135.129 81.7009 134.808 82.0447 134.373 82.1593L131.828 82.847C131.828 82.847 131.622 82.8929 131.507 82.8929C131.186 82.8929 130.865 82.7553 130.636 82.5261L128.779 80.6694C128.459 80.3485 128.344 79.9129 128.459 79.4774L129.146 76.933C129.261 76.5204 129.582 76.1765 130.017 76.0619L132.562 75.3742C132.562 75.3742 132.768 75.3284 132.883 75.3284ZM132.883 73.0361C132.585 73.0361 132.264 73.082 131.966 73.1508L129.421 73.8384C128.206 74.1593 127.267 75.1221 126.923 76.337L126.235 78.8814C125.914 80.0963 126.258 81.4029 127.152 82.274L129.009 84.1307C129.673 84.7954 130.567 85.1622 131.507 85.1622C131.805 85.1622 132.126 85.1164 132.424 85.0476L134.969 84.3599C136.183 84.039 137.123 83.0763 137.467 81.8614L138.155 79.3169C138.476 78.102 138.132 76.7955 137.238 75.9244L135.381 74.0677C134.716 73.4029 133.822 73.0361 132.883 73.0361Z" fill="#96D0E2"/>
</g>
<path id="Vector_26" d="M36.8379 38.2124C36.8379 38.2124 45.9611 45.5935 54.2591 46.0978" stroke="#F7F7F7" stroke-width="3.09456" stroke-linecap="round" stroke-linejoin="round"/>
<path id="Vector_27" d="M54.2578 21.4126L62.7392 29.894" stroke="#F7F7F7" stroke-width="3.09456" stroke-linecap="round" stroke-linejoin="round"/>
<path id="Vector_28" d="M86.3047 13.9624V24.2776" stroke="#F7F7F7" stroke-width="3.09456" stroke-linecap="round" stroke-linejoin="round"/>
<path id="Vector_29" d="M115.988 24.2749L108.584 31.6789" stroke="#F7F7F7" stroke-width="3.09456" stroke-linecap="round" stroke-linejoin="round"/>
<path id="Vector_30" d="M129.697 39.3564C129.697 39.3564 117.571 47.3794 112.299 47.769" stroke="#F7F7F7" stroke-width="3.09456" stroke-linecap="round" stroke-linejoin="round"/>
<path id="Vector_31" d="M117.938 39.3564C117.938 39.3564 124.723 50.0613 118.786 57.5112" stroke="#F7F7F7" stroke-width="3.09456" stroke-linecap="round" stroke-linejoin="round"/>
<path id="Vector_32" d="M51.1635 37.25C51.1635 37.25 42.5675 53.4792 50.2008 60.5623" stroke="#F7F7F7" stroke-width="3.09456" stroke-linecap="round" stroke-linejoin="round"/>
<path id="Vector_33" d="M79.0605 58.9601C79.0605 58.9601 89.2382 63.1779 94.923 52.3813" stroke="#5DAED6" stroke-width="2.06304" stroke-linecap="round" stroke-linejoin="round"/>
<path id="Vector_34" d="M94.5091 53.5249L95.3114 58.545C95.4718 59.2097 94.8071 59.7599 94.1882 59.5077L90.5664 58.0865" stroke="#5DAED6" stroke-width="2.06304" stroke-linecap="round" stroke-linejoin="round"/>
</g>
</svg>
