<svg width="32" height="32" viewBox="0 0 32 32" fill="none" xmlns="http://www.w3.org/2000/svg">
<g id="Frame 2085666817">
<path id="Vector" d="M16 32C24.8366 32 32 24.8366 32 16C32 7.16344 24.8366 0 16 0C7.16344 0 0 7.16344 0 16C0 24.8366 7.16344 32 16 32Z" fill="#5DAED6"/>
<g id="Group">
<g id="Group_2">
<path id="Vector_2" d="M5.47769 29.257C4.437 29.257 3.58887 28.4088 3.58887 27.3727V20.0283H28.2811V27.3727C28.2811 28.4134 27.433 29.257 26.3923 29.257H5.47769Z" fill="#F7F7F7"/>
<path id="Vector_3" d="M27.5936 20.7162V27.3729C27.5936 28.0331 27.0572 28.5741 26.3925 28.5741H5.47787C4.8177 28.5741 4.27673 28.0377 4.27673 27.3729V20.7162H27.5936ZM28.969 19.3408H2.90137V27.3729C2.90137 28.7941 4.05667 29.9494 5.47787 29.9494H26.3971C27.8183 29.9494 28.9736 28.7941 28.9736 27.3729V19.3408H28.969Z" fill="#5DAED6"/>
</g>
<g id="Group_3">
<path id="Vector_4" d="M10.4683 22.5479H9.06088C8.8482 22.5479 8.67578 22.7203 8.67578 22.933V24.3404C8.67578 24.5531 8.8482 24.7255 9.06088 24.7255H10.4683C10.681 24.7255 10.8534 24.5531 10.8534 24.3404V22.933C10.8534 22.7203 10.681 22.5479 10.4683 22.5479Z" fill="#5DAED6"/>
<path id="Vector_5" d="M7.38239 22.5479H5.97494C5.76226 22.5479 5.58984 22.7203 5.58984 22.933V24.3404C5.58984 24.5531 5.76226 24.7255 5.97494 24.7255H7.38239C7.59508 24.7255 7.76749 24.5531 7.76749 24.3404V22.933C7.76749 22.7203 7.59508 22.5479 7.38239 22.5479Z" fill="#5DAED6"/>
<path id="Vector_6" d="M13.5582 22.5479H12.1507C11.938 22.5479 11.7656 22.7203 11.7656 22.933V24.3404C11.7656 24.5531 11.938 24.7255 12.1507 24.7255H13.5582C13.7709 24.7255 13.9433 24.5531 13.9433 24.3404V22.933C13.9433 22.7203 13.7709 22.5479 13.5582 22.5479Z" fill="#5DAED6"/>
<path id="Vector_7" d="M16.6431 22.5479H15.2357C15.023 22.5479 14.8506 22.7203 14.8506 22.933V24.3404C14.8506 24.5531 15.023 24.7255 15.2357 24.7255H16.6431C16.8558 24.7255 17.0282 24.5531 17.0282 24.3404V22.933C17.0282 22.7203 16.8558 22.5479 16.6431 22.5479Z" fill="#5DAED6"/>
<path id="Vector_8" d="M19.7291 22.5479H18.3216C18.1089 22.5479 17.9365 22.7203 17.9365 22.933V24.3404C17.9365 24.5531 18.1089 24.7255 18.3216 24.7255H19.7291C19.9418 24.7255 20.1142 24.5531 20.1142 24.3404V22.933C20.1142 22.7203 19.9418 22.5479 19.7291 22.5479Z" fill="#5DAED6"/>
<path id="Vector_9" d="M22.8189 22.5479H21.4115C21.1988 22.5479 21.0264 22.7203 21.0264 22.933V24.3404C21.0264 24.5531 21.1988 24.7255 21.4115 24.7255H22.8189C23.0316 24.7255 23.204 24.5531 23.204 24.3404V22.933C23.204 22.7203 23.0316 22.5479 22.8189 22.5479Z" fill="#5DAED6"/>
<path id="Vector_10" d="M25.9039 22.5479H24.4964C24.2837 22.5479 24.1113 22.7203 24.1113 22.933V24.3404C24.1113 24.5531 24.2837 24.7255 24.4964 24.7255H25.9039C26.1166 24.7255 26.289 24.5531 26.289 24.3404V22.933C26.289 22.7203 26.1166 22.5479 25.9039 22.5479Z" fill="#5DAED6"/>
<path id="Vector_11" d="M10.4683 25.5508H9.06088C8.8482 25.5508 8.67578 25.7232 8.67578 25.9359V27.3433C8.67578 27.556 8.8482 27.7284 9.06088 27.7284H10.4683C10.681 27.7284 10.8534 27.556 10.8534 27.3433V25.9359C10.8534 25.7232 10.681 25.5508 10.4683 25.5508Z" fill="#5DAED6"/>
<path id="Vector_12" d="M7.38239 25.5508H5.97494C5.76226 25.5508 5.58984 25.7232 5.58984 25.9359V27.3433C5.58984 27.556 5.76226 27.7284 5.97494 27.7284H7.38239C7.59508 27.7284 7.76749 27.556 7.76749 27.3433V25.9359C7.76749 25.7232 7.59508 25.5508 7.38239 25.5508Z" fill="#5DAED6"/>
<path id="Vector_13" d="M13.5582 25.5508H12.1507C11.938 25.5508 11.7656 25.7232 11.7656 25.9359V27.3433C11.7656 27.556 11.938 27.7284 12.1507 27.7284H13.5582C13.7709 27.7284 13.9433 27.556 13.9433 27.3433V25.9359C13.9433 25.7232 13.7709 25.5508 13.5582 25.5508Z" fill="#5DAED6"/>
<path id="Vector_14" d="M16.6431 25.5508H15.2357C15.023 25.5508 14.8506 25.7232 14.8506 25.9359V27.3433C14.8506 27.556 15.023 27.7284 15.2357 27.7284H16.6431C16.8558 27.7284 17.0282 27.556 17.0282 27.3433V25.9359C17.0282 25.7232 16.8558 25.5508 16.6431 25.5508Z" fill="#5DAED6"/>
<path id="Vector_15" d="M19.7291 25.5508H18.3216C18.1089 25.5508 17.9365 25.7232 17.9365 25.9359V27.3433C17.9365 27.556 18.1089 27.7284 18.3216 27.7284H19.7291C19.9418 27.7284 20.1142 27.556 20.1142 27.3433V25.9359C20.1142 25.7232 19.9418 25.5508 19.7291 25.5508Z" fill="#5DAED6"/>
<path id="Vector_16" d="M22.8189 25.5508H21.4115C21.1988 25.5508 21.0264 25.7232 21.0264 25.9359V27.3433C21.0264 27.556 21.1988 27.7284 21.4115 27.7284H22.8189C23.0316 27.7284 23.204 27.556 23.204 27.3433V25.9359C23.204 25.7232 23.0316 25.5508 22.8189 25.5508Z" fill="#5DAED6"/>
<path id="Vector_17" d="M25.9039 25.5508H24.4964C24.2837 25.5508 24.1113 25.7232 24.1113 25.9359V27.3433C24.1113 27.556 24.2837 27.7284 24.4964 27.7284H25.9039C26.1166 27.7284 26.289 27.556 26.289 27.3433V25.9359C26.289 25.7232 26.1166 25.5508 25.9039 25.5508Z" fill="#5DAED6"/>
</g>
<g id="Group_4" opacity="0.2">
<path id="Vector_18" d="M27.5942 20.7158H4.27734V21.8299H27.5942V20.7158Z" fill="#5DAED6"/>
</g>
</g>
<path id="Vector_19" d="M20.9697 10.1088C20.9697 12.1764 19.1634 14.0285 17.1003 14.0285C15.0373 14.0285 13.0889 12.0801 13.0889 10.0171C13.0889 7.95404 14.7393 6.17066 17.3158 6.19358C19.3834 6.21192 20.9743 8.04573 20.9743 10.1133L20.9697 10.1088Z" fill="#F7F7F7" stroke="#5DAED6" stroke-width="0.825215" stroke-miterlimit="10"/>
<g id="Group_5">
<path id="Vector_20" d="M18.9155 23.9533C18.6771 23.9533 18.4479 23.8937 18.2324 23.7745C18.2141 23.7653 18.2003 23.7561 18.1866 23.7424C17.7923 23.4536 17.5814 23.1051 17.5585 22.7109C17.5127 21.9132 18.2737 21.2163 18.8834 20.657C19.0485 20.5057 19.2044 20.3636 19.319 20.2398C19.4703 20.0564 19.6812 19.8547 19.9058 19.6438C20.3505 19.2175 20.9557 18.6444 20.9144 18.2639C20.7585 17.865 20.4972 17.6679 20.1259 17.6679C19.8599 17.6679 19.5574 17.7642 19.2456 17.9475C17.9574 18.5894 17.1322 18.9286 16.3528 18.9286C15.2342 18.9286 14.3952 18.1905 13.1482 16.9802C12.9694 16.8152 12.864 16.7968 12.8227 16.7968C12.7448 16.7968 12.6393 16.8839 12.5247 17.0398C12.3276 17.2828 12.1534 17.5304 11.9791 17.7733C11.5665 18.3556 11.1356 18.9607 10.535 19.41C9.90236 19.8868 9.1184 19.9464 8.50866 19.9464C8.22901 19.9464 7.94935 19.9326 7.67428 19.9189C7.50465 19.9097 7.33961 19.9006 7.17456 19.896C6.8078 19.8776 6.45479 19.873 6.0972 19.8685C5.66167 19.8639 5.22156 19.8547 4.78603 19.8272C4.00207 19.8272 3.29147 19.355 3.076 18.7086C2.8972 18.1584 3.10809 17.5991 3.64448 17.2048C3.67657 17.1819 3.71325 17.159 3.75451 17.1453C4.27256 16.9481 4.85021 16.861 5.57456 16.861C5.98259 16.861 6.39519 16.8885 6.78946 16.916C7.18373 16.9435 7.55966 16.9665 7.93101 16.9665C8.01812 16.9665 8.10522 16.9665 8.19233 16.9665C8.19691 16.9665 8.24734 16.9665 8.26568 16.9665C8.32528 16.9756 8.38488 16.9802 8.43989 16.9802C8.77915 16.9802 9.02671 16.8427 9.21468 16.5493C9.22385 16.5355 9.23302 16.5218 9.24219 16.5126C9.65938 15.9854 10.0812 15.4261 10.4983 14.8713C10.7001 14.6054 10.8972 14.3395 11.0989 14.0782C11.4244 13.6748 11.8233 13.2622 12.3826 13.1567C12.4651 13.143 12.5476 13.1338 12.6256 13.1338C13.1986 13.1338 13.7167 13.4776 14.1751 13.7802C14.3173 13.8765 14.4594 13.9682 14.5969 14.0507C14.8491 14.1836 15.1195 14.3762 15.3809 14.555C15.8668 14.8942 16.3665 15.2427 16.7791 15.261C17.0496 15.2427 17.6089 15.1051 18.0995 14.9859C18.4433 14.8988 18.7688 14.8209 19.0393 14.7705C19.4152 14.665 19.8645 14.555 20.3322 14.555C20.8961 14.555 21.3774 14.7109 21.813 15.0318C22.3677 15.4031 23.7201 16.453 23.9952 17.9017C24.1281 18.6077 23.9814 19.2771 23.5597 19.8914L23.523 19.951C22.6978 21.1796 21.5241 22.2524 20.5797 23.1189C20.19 23.4765 19.594 23.9533 18.911 23.9533H18.9155Z" fill="#F7F7F7"/>
<path id="Vector_21" d="M12.6214 13.5918C13.2128 13.5918 13.8042 14.1236 14.3681 14.4445C15.1062 14.8388 15.9543 15.6869 16.7612 15.719C17.348 15.6869 18.4621 15.3385 19.1222 15.2193C19.5165 15.1093 19.9291 15.013 20.3326 15.013C20.7452 15.013 21.1532 15.1139 21.5429 15.3981C22.9091 16.3196 24.289 18.0159 23.1841 19.6296L23.1337 19.7076C22.3727 20.8399 21.3045 21.8302 20.273 22.7746C19.9108 23.1093 19.4157 23.4898 18.9159 23.4898C18.7647 23.4898 18.6088 23.4531 18.4575 23.3706C17.1876 22.4399 19.003 21.2571 19.6586 20.5511C20.2271 19.8772 21.5337 18.9924 21.3595 18.1442C21.1211 17.4886 20.6581 17.209 20.1263 17.209C19.7687 17.209 19.3836 17.3328 19.0122 17.5528C17.8065 18.1534 17.0271 18.4697 16.3532 18.4697C15.4455 18.4697 14.744 17.8921 13.4695 16.6497C13.2403 16.4388 13.0294 16.3333 12.8277 16.3333C12.5939 16.3333 12.3738 16.4755 12.1583 16.7643C11.544 17.5207 11.0535 18.4468 10.2604 19.0428C9.77898 19.405 9.1509 19.4875 8.50907 19.4875C8.06437 19.4875 7.6105 19.4462 7.18872 19.4371C6.3956 19.4004 5.60706 19.4187 4.81394 19.3683C4.80018 19.3683 4.78643 19.3683 4.77268 19.3683C3.75491 19.3683 2.92511 18.3001 3.91078 17.5757C4.438 17.3786 4.99732 17.319 5.57038 17.319C6.34975 17.319 7.15205 17.4245 7.92683 17.4245C8.01852 17.4245 8.1148 17.4245 8.20649 17.4199C8.28442 17.429 8.36695 17.4336 8.4403 17.4336C8.92167 17.4336 9.32053 17.2273 9.60018 16.7918C10.2191 16.0124 10.8472 15.1551 11.4615 14.3482C11.7228 14.0227 12.0483 13.6789 12.4655 13.601C12.5205 13.5918 12.571 13.5872 12.626 13.5872M12.6214 12.6749C12.5159 12.6749 12.4105 12.6841 12.3051 12.7024C11.4936 12.8537 10.9664 13.5001 10.7463 13.7752C10.7417 13.7843 10.7371 13.7889 10.728 13.7981C10.5308 14.0594 10.3291 14.3253 10.1274 14.5958C9.7148 15.1414 9.29302 15.7098 8.88041 16.2279C8.86207 16.2508 8.84374 16.2783 8.8254 16.3012C8.71995 16.4617 8.61909 16.5213 8.4403 16.5213C8.40362 16.5213 8.36236 16.5213 8.3211 16.5121C8.28442 16.5076 8.24316 16.503 8.20649 16.503C8.19273 16.503 8.18356 16.503 8.16981 16.503C8.08729 16.503 8.00477 16.503 7.92683 16.503C7.57382 16.503 7.20706 16.48 6.81737 16.4525C6.41394 16.425 5.99216 16.3975 5.57038 16.3975C4.78643 16.3975 4.15835 16.4984 3.58987 16.7139C3.51193 16.7414 3.43858 16.7826 3.36981 16.8331C2.67755 17.3419 2.39331 18.1121 2.63629 18.8457C2.90677 19.68 3.80534 20.2852 4.77268 20.2852H4.79101C5.23113 20.3127 5.67124 20.3173 6.09302 20.3265C6.4552 20.331 6.79904 20.3356 7.14746 20.354C7.32167 20.3586 7.48672 20.3677 7.65176 20.3769C7.93142 20.3906 8.21566 20.409 8.51365 20.409C9.14173 20.409 10.0632 20.3448 10.8151 19.7809C11.4753 19.2858 11.9475 18.6256 12.3601 18.0388C12.5343 17.7912 12.7039 17.5574 12.8735 17.3465C14.1801 18.621 15.0787 19.3912 16.3578 19.3912C17.2243 19.3912 18.1045 19.0336 19.4248 18.378C19.4432 18.3689 19.4661 18.3597 19.4844 18.3459C19.7182 18.2084 19.9475 18.1305 20.1308 18.1305C20.2225 18.1305 20.3417 18.1305 20.4518 18.3414C20.3601 18.5843 19.8512 19.0703 19.599 19.3133C19.3744 19.5288 19.1589 19.7351 18.9801 19.9459C18.8839 20.0468 18.7371 20.1798 18.5859 20.3219C17.9028 20.9454 17.0546 21.7247 17.1142 22.7379C17.1326 23.1093 17.293 23.6502 17.9257 24.1133C17.9578 24.1362 17.9899 24.1545 18.022 24.1729C18.3016 24.3288 18.6088 24.4113 18.9251 24.4113C19.7687 24.4113 20.4563 23.8657 20.9056 23.4531C21.8638 22.5729 23.0604 21.4772 23.9085 20.221C23.9177 20.2118 23.9222 20.1981 23.9268 20.1889L23.9635 20.1247C24.4403 19.4187 24.6099 18.6164 24.4586 17.8096C24.1515 16.205 22.7073 15.068 22.0793 14.6462C21.575 14.2795 20.9881 14.0915 20.3417 14.0915C19.8328 14.0915 19.3606 14.2015 18.9251 14.3207C18.65 14.3712 18.3337 14.4491 17.999 14.5316C17.5773 14.6371 17.0592 14.7654 16.7704 14.7929C16.4907 14.7563 16.0277 14.4308 15.6518 14.1694C15.3813 13.9815 15.1062 13.7889 14.822 13.6331C14.7028 13.5643 14.5744 13.4772 14.4323 13.3855C13.9463 13.0646 13.3412 12.6611 12.6306 12.6611L12.6214 12.6749Z" fill="#5DAED6"/>
</g>
<g id="Group_6">
<path id="Vector_22" d="M5.10239 16.0523C4.74479 16.0523 4.41012 15.8597 4.22674 15.548L3.86457 14.9245C3.68577 14.6127 3.68577 14.2276 3.86457 13.9159L4.22674 13.2924C4.40554 12.9806 4.74021 12.7881 5.10239 12.7881H5.82674C6.18434 12.7881 6.51901 12.9806 6.6978 13.2924L7.05998 13.9159C7.23878 14.2276 7.23878 14.6127 7.05998 14.9245L6.6978 15.548C6.51901 15.8597 6.18434 16.0523 5.82674 16.0523H5.10239Z" fill="white"/>
<path id="Vector_23" d="M5.82631 13.0131C6.10596 13.0131 6.3627 13.1598 6.50023 13.4028L6.86241 14.0263C6.99995 14.2693 6.99995 14.5627 6.86241 14.8057L6.50023 15.4292C6.3627 15.6722 6.10596 15.8189 5.82631 15.8189H5.10195C4.8223 15.8189 4.56556 15.6722 4.42803 15.4292L4.06585 14.8057C3.92831 14.5627 3.92831 14.2693 4.06585 14.0263L4.42803 13.4028C4.56556 13.1598 4.8223 13.0131 5.10195 13.0131H5.82631ZM5.82631 12.5547H5.10195C4.66184 12.5547 4.24923 12.7931 4.02917 13.1736L3.667 13.7971C3.44694 14.1776 3.44694 14.6544 3.667 15.0349L4.02917 15.6584C4.24923 16.0389 4.66184 16.2773 5.10195 16.2773H5.82631C6.26642 16.2773 6.67903 16.0389 6.89909 15.6584L7.26127 15.0349C7.48132 14.6544 7.48132 14.1776 7.26127 13.7971L6.89909 13.1736C6.67903 12.7931 6.26642 12.5547 5.82631 12.5547Z" fill="#96D0E2"/>
</g>
<g id="Group_7">
<path id="Vector_24" d="M26.3007 16.8056C26.1769 16.8056 26.0531 16.7552 25.966 16.6681L25.5947 16.2967C25.4755 16.1775 25.4296 15.9988 25.4709 15.8383L25.6084 15.3294C25.6497 15.1644 25.7826 15.036 25.9431 14.9947L26.452 14.8572C26.4933 14.848 26.5345 14.8389 26.5758 14.8389C26.7041 14.8389 26.8233 14.8893 26.9104 14.9764L27.2818 15.3478C27.401 15.4669 27.4468 15.6412 27.4056 15.8062L27.268 16.3151C27.2268 16.4801 27.0938 16.6085 26.9334 16.6498L26.4245 16.7873C26.3832 16.7965 26.342 16.8056 26.3007 16.8056Z" fill="white"/>
<path id="Vector_25" d="M26.5757 15.0639C26.6399 15.0639 26.7041 15.0914 26.75 15.1373L27.1213 15.5086C27.1855 15.5728 27.2084 15.6599 27.1855 15.747L27.0479 16.2559C27.025 16.3384 26.9608 16.4072 26.8737 16.4301L26.3649 16.5676C26.3649 16.5676 26.3236 16.5768 26.3007 16.5768C26.2365 16.5768 26.1723 16.5493 26.1265 16.5035L25.7551 16.1321C25.6909 16.0679 25.668 15.9808 25.6909 15.8937L25.8285 15.3848C25.8514 15.3023 25.9156 15.2335 26.0027 15.2106L26.5116 15.0731C26.5116 15.0731 26.5528 15.0639 26.5757 15.0639ZM26.5757 14.6055C26.5161 14.6055 26.452 14.6146 26.3924 14.6284L25.8835 14.7659C25.6405 14.8301 25.4525 15.0227 25.3838 15.2656L25.2462 15.7745C25.182 16.0175 25.2508 16.2788 25.4296 16.453L25.801 16.8244C25.9339 16.9573 26.1127 17.0307 26.3007 17.0307C26.3603 17.0307 26.4244 17.0215 26.484 17.0078L26.9929 16.8702C27.2359 16.806 27.4239 16.6135 27.4926 16.3705L27.6302 15.8616C27.6944 15.6186 27.6256 15.3573 27.4468 15.1831L27.0755 14.8118C26.9425 14.6788 26.7637 14.6055 26.5757 14.6055Z" fill="#96D0E2"/>
</g>
<path id="Vector_26" d="M7.36719 7.64258C7.36719 7.64258 9.19183 9.1188 10.8514 9.21965" stroke="#F7F7F7" stroke-width="0.618911" stroke-linecap="round" stroke-linejoin="round"/>
<path id="Vector_27" d="M10.8516 4.28223L12.5478 5.9785" stroke="#F7F7F7" stroke-width="0.618911" stroke-linecap="round" stroke-linejoin="round"/>
<path id="Vector_28" d="M17.2617 2.79297V4.85601" stroke="#F7F7F7" stroke-width="0.618911" stroke-linecap="round" stroke-linejoin="round"/>
<path id="Vector_29" d="M23.1976 4.85547L21.7168 6.33627" stroke="#F7F7F7" stroke-width="0.618911" stroke-linecap="round" stroke-linejoin="round"/>
<path id="Vector_30" d="M25.9396 7.87109C25.9396 7.87109 23.5144 9.47568 22.46 9.55361" stroke="#F7F7F7" stroke-width="0.618911" stroke-linecap="round" stroke-linejoin="round"/>
<path id="Vector_31" d="M23.5879 7.87109C23.5879 7.87109 24.9449 10.0121 23.7575 11.502" stroke="#F7F7F7" stroke-width="0.618911" stroke-linecap="round" stroke-linejoin="round"/>
<path id="Vector_32" d="M10.2327 7.4502C10.2327 7.4502 8.51351 10.696 10.0402 12.1127" stroke="#F7F7F7" stroke-width="0.618911" stroke-linecap="round" stroke-linejoin="round"/>
<path id="Vector_33" d="M15.8115 11.7923C15.8115 11.7923 17.8471 12.6359 18.984 10.4766" stroke="#5DAED6" stroke-width="0.412607" stroke-linecap="round" stroke-linejoin="round"/>
<path id="Vector_34" d="M18.9018 10.7051L19.0623 11.7091C19.0944 11.842 18.9614 11.9521 18.8376 11.9016L18.1133 11.6174" stroke="#5DAED6" stroke-width="0.412607" stroke-linecap="round" stroke-linejoin="round"/>
</g>
</svg>
