<svg width="200" height="60" viewBox="0 0 200 60" fill="none" xmlns="http://www.w3.org/2000/svg">
<g id="Frame 2085666819">
<g id="Group">
<path id="Vector" d="M21.867 7.30713C27.8708 7.30713 31.2553 7.97759 34.5221 9.8251C38.098 11.8514 38.9515 15.8295 37.6712 19.3308C36.3321 22.9513 32.5209 23.741 28.8862 22.8321C27.6795 22.5193 26.7672 22.4001 25.6194 22.4001C21.1312 22.4001 18.7768 26.259 18.7768 30.6244C18.7768 35.6008 20.778 38.1039 23.5004 38.1039C24.7659 38.1039 25.3839 37.8506 25.3839 37.1801C25.3839 36.5096 24.7806 36.1372 23.7505 35.8243C21.9258 35.2134 20.3513 33.8576 20.3513 30.4308C20.3513 27.2423 22.588 24.0539 26.8408 24.2327C36.5382 24.7243 41.3795 27.6744 41.3795 37.1801C41.3795 47.2371 33.5657 54.4185 21.5727 54.4185C7.75498 54.4185 0 46.0154 0 30.6244C0 15.2335 9.32951 7.32203 21.867 7.32203V7.30713Z" fill="#5DAED6"/>
<path id="Vector_2" d="M42.5859 37.43C42.5859 27.671 49.9142 20.4448 60.2738 20.4448C70.6333 20.4448 77.8439 27.6859 77.8439 37.43C77.8439 47.1741 70.5156 54.4151 60.2738 54.4151C50.0319 54.4151 42.5859 47.1741 42.5859 37.43ZM62.5841 37.43C62.5841 36.0145 61.554 34.9716 60.2885 34.9716C58.8905 34.9716 57.8604 36.0145 57.8604 37.43C57.8604 38.8454 58.8905 39.8883 60.2885 39.8883C61.554 39.8883 62.5841 38.8454 62.5841 37.43Z" fill="#5DAED6"/>
<path id="Vector_3" d="M79.0645 27.3741C79.1233 23.5152 79.7855 17.4959 80.639 14.4862C82.0369 9.58439 85.2449 6.32146 89.8508 6.69394C94.339 7.06642 96.5168 10.8061 96.9436 14.7246C97.2526 17.3618 97.1202 19.7606 96.5168 22.2636C98.0325 21.5336 99.9014 21.1611 101.785 21.1611C109.304 21.1611 115.117 27.7168 115.117 36.9841C115.117 47.1007 109.304 54.4013 98.268 54.4013C89.0562 54.4013 83.6115 50.4828 81.1835 43.7335C79.6678 39.5021 79.0645 34.4065 79.0645 27.3592V27.3741ZM100.446 36.9394C100.446 35.524 99.3569 34.481 98.0178 34.481C96.6787 34.481 95.5898 35.524 95.5898 36.9394C95.5898 38.3548 96.6787 39.3978 98.0178 39.3978C99.3569 39.3978 100.446 38.3548 100.446 36.9394Z" fill="#5DAED6"/>
<path id="Vector_4" d="M118.679 45.8237C116.737 37.4801 116.737 23.5642 118.679 15.2206C119.768 10.4976 122.491 6.63867 127.465 6.63867C132.438 6.63867 135.161 10.4976 136.25 15.2206C138.192 23.5642 138.192 37.4801 136.25 45.8237C135.161 50.5467 132.438 54.4056 127.465 54.4056C122.491 54.4056 119.768 50.5467 118.679 45.8237Z" fill="#5DAED6"/>
<path id="Vector_5" d="M141.224 45.8297C140.194 41.345 140.194 34.4169 141.224 29.9471C142.313 25.2241 145.035 21.3652 150.009 21.3652C154.983 21.3652 157.705 25.2241 158.794 29.9471C159.824 34.4318 159.824 41.3599 158.794 45.8297C157.705 50.5528 154.983 54.4117 150.009 54.4117C145.035 54.4117 142.313 50.5528 141.224 45.8297ZM142.372 12.9471C142.372 8.89449 145.756 5.70605 150.009 5.70605C154.261 5.70605 157.587 8.89449 157.587 12.9471C157.587 16.9997 154.188 20.2477 150.009 20.2477C145.83 20.2477 142.372 17.0593 142.372 12.9471Z" fill="#5DAED6"/>
<path id="Vector_6" d="M199.198 46.4438C198.168 50.8539 195.622 54.4149 191.016 54.4149C186.41 54.4149 183.865 50.7943 182.835 46.4438C182.349 44.3579 182.231 40.9906 182.231 39.1431C182.231 38.1002 181.922 37.6085 181.319 37.6085C181.069 37.6085 180.598 37.6681 180.039 37.7873C180.039 40.9161 179.73 43.9854 179.185 46.4289C178.155 50.839 175.609 54.4 171.003 54.4C166.398 54.4 163.852 50.839 162.822 46.4289C161.674 41.3929 161.674 33.4218 162.822 28.4008C163.852 23.9906 166.398 20.4297 171.003 20.4297C174.094 20.4297 176.272 22.0239 177.67 24.4823C180.524 21.7259 184.218 20.4893 188.147 20.4893C194.386 20.4893 197.05 23.6777 199.051 30.0546C200.331 34.1668 200.258 41.7058 199.169 46.4289L199.198 46.4438Z" fill="#5DAED6"/>
</g>
</g>
</svg>
