<svg width="28" height="28" viewBox="0 0 28 28" fill="none" xmlns="http://www.w3.org/2000/svg">
<g id="MONTH">
<rect width="28" height="28" fill="none"/>
<rect id="Rectangle 34628002" x="4.25" y="4.25" width="19.5" height="19.5" rx="6.25" stroke="#767676" stroke-width="1.5"/>
<path id="M" d="M10.105 8.85486C10.217 8.85486 10.3336 8.88286 10.455 8.93886C10.5763 8.99486 10.6696 9.07419 10.735 9.17686L14.291 14.5949L13.689 14.5669L17.315 9.17686C17.4643 8.96219 17.6556 8.85486 17.889 8.85486C18.0756 8.85486 18.239 8.92486 18.379 9.06486C18.5283 9.19552 18.603 9.36352 18.603 9.56886V17.9549C18.603 18.1602 18.5376 18.3329 18.407 18.4729C18.2763 18.6035 18.1036 18.6689 17.889 18.6689C17.665 18.6689 17.483 18.6035 17.343 18.4729C17.2123 18.3329 17.147 18.1602 17.147 17.9549V10.8569L17.595 10.9549L14.515 15.6449C14.4496 15.7289 14.3656 15.8035 14.263 15.8689C14.1603 15.9249 14.053 15.9482 13.941 15.9389C13.8383 15.9482 13.731 15.9249 13.619 15.8689C13.5163 15.8035 13.4323 15.7289 13.367 15.6449L10.399 11.0249L10.735 10.4649V17.9549C10.735 18.1602 10.6696 18.3329 10.539 18.4729C10.4176 18.6035 10.2543 18.6689 10.049 18.6689C9.85295 18.6689 9.68962 18.6035 9.55895 18.4729C9.43762 18.3329 9.37695 18.1602 9.37695 17.9549V9.56886C9.37695 9.37286 9.44695 9.20486 9.58695 9.06486C9.73629 8.92486 9.90895 8.85486 10.105 8.85486Z" fill="#767676"/>
</g>
</svg>
