<svg width="20" height="20" viewBox="0 0 21 20" fill="none" xmlns="http://www.w3.org/2000/svg">
<g id="Frame 2085666979">
<path id="Union" fill-rule="evenodd" clip-rule="evenodd" d="M11.4734 2.01526C11.351 1.94463 11.2045 1.92904 11.0701 1.97234C10.9356 2.01564 10.8258 2.1138 10.7676 2.24254L8.65549 6.92114L4.68352 8.73104C4.51314 8.80868 4.40041 8.975 4.39143 9.16203C4.38244 9.34905 4.4787 9.52542 4.64085 9.61904L8.78386 12.011L6.39024 16.1569C6.25217 16.396 6.33411 16.7018 6.57325 16.8399C6.8124 16.978 7.11819 16.896 7.25627 16.6569L9.64989 12.511L13.8001 14.9071C13.9622 15.0007 14.1631 14.9959 14.3205 14.8946C14.478 14.7933 14.5657 14.6125 14.5477 14.4261L14.1292 10.0814L17.1249 5.9129C17.2073 5.7982 17.2374 5.65398 17.2077 5.51589C17.1779 5.3778 17.0912 5.25872 16.9689 5.1881L11.4734 2.01526ZM9.79274 11.4388L13.4593 13.5556L13.1158 9.99017C13.1041 9.86955 13.1367 9.74882 13.2074 9.65043L15.9905 5.77791L11.4518 3.15749L9.48958 7.50392C9.43972 7.61436 9.35145 7.70293 9.24119 7.75318L5.98165 9.23845L9.64102 11.3512C9.66816 11.3611 9.69482 11.3734 9.7207 11.3884C9.74658 11.4033 9.77062 11.4202 9.79274 11.4388Z" fill="white"/>
</g>
</svg>
