<svg width="40" height="40" viewBox="0 0 40 40" fill="none" xmlns="http://www.w3.org/2000/svg">
<rect x="0.75" y="0.75" width="38.5" height="38.5" rx="14.25" fill="url(#paint0_linear_401_5049)" stroke="url(#paint1_linear_401_5049)" stroke-width="1.5"/>
<mask id="path-2-inside-1_401_5049" fill="white">
<path fill-rule="evenodd" clip-rule="evenodd" d="M23 11C23 9.34315 21.6569 8 20 8C18.3431 8 17 9.34315 17 11V17H11C9.34315 17 8 18.3431 8 20C8 21.6569 9.34315 23 11 23H17V29C17 30.6569 18.3431 32 20 32C21.6569 32 23 30.6569 23 29V23H29C30.6569 23 32 21.6569 32 20C32 18.3431 30.6569 17 29 17H23V11Z"/>
</mask>
<path fill-rule="evenodd" clip-rule="evenodd" d="M23 11C23 9.34315 21.6569 8 20 8C18.3431 8 17 9.34315 17 11V17H11C9.34315 17 8 18.3431 8 20C8 21.6569 9.34315 23 11 23H17V29C17 30.6569 18.3431 32 20 32C21.6569 32 23 30.6569 23 29V23H29C30.6569 23 32 21.6569 32 20C32 18.3431 30.6569 17 29 17H23V11Z" fill="white"/>
<path d="M17 17V18H18V17H17ZM17 23H18V22H17V23ZM23 23V22H22V23H23ZM23 17H22V18H23V17ZM20 9C21.1046 9 22 9.89543 22 11H24C24 8.79086 22.2091 7 20 7V9ZM18 11C18 9.89543 18.8954 9 20 9V7C17.7909 7 16 8.79086 16 11H18ZM18 17V11H16V17H18ZM11 18H17V16H11V18ZM9 20C9 18.8954 9.89543 18 11 18V16C8.79086 16 7 17.7909 7 20H9ZM11 22C9.89543 22 9 21.1046 9 20H7C7 22.2091 8.79086 24 11 24V22ZM17 22H11V24H17V22ZM18 29V23H16V29H18ZM20 31C18.8954 31 18 30.1046 18 29H16C16 31.2091 17.7909 33 20 33V31ZM22 29C22 30.1046 21.1046 31 20 31V33C22.2091 33 24 31.2091 24 29H22ZM22 23V29H24V23H22ZM29 22H23V24H29V22ZM31 20C31 21.1046 30.1046 22 29 22V24C31.2091 24 33 22.2091 33 20H31ZM29 18C30.1046 18 31 18.8954 31 20H33C33 17.7909 31.2091 16 29 16V18ZM23 18H29V16H23V18ZM22 11V17H24V11H22Z" fill="url(#paint2_linear_401_5049)" mask="url(#path-2-inside-1_401_5049)"/>
<defs>
<linearGradient id="paint0_linear_401_5049" x1="40" y1="1.19209e-06" x2="-1.19209e-06" y2="40" gradientUnits="userSpaceOnUse">
<stop stop-color="#7DBEDE"/>
<stop offset="1" stop-color="#AED6EA"/>
</linearGradient>
<linearGradient id="paint1_linear_401_5049" x1="40" y1="1.19209e-06" x2="-1.19209e-06" y2="40" gradientUnits="userSpaceOnUse">
<stop stop-color="#91C8E3"/>
<stop offset="1" stop-color="#7DBEDE"/>
</linearGradient>
<linearGradient id="paint2_linear_401_5049" x1="8" y1="8" x2="32" y2="32" gradientUnits="userSpaceOnUse">
<stop stop-color="#7DBEDE"/>
<stop offset="1" stop-color="#AED6EA"/>
</linearGradient>
</defs>
</svg>
